<svg width="14" height="14" viewBox="0 0 14 14" fill="none" xmlns="http://www.w3.org/2000/svg">
<g clip-path="url(#clip0_303_73)">
<path fill-rule="evenodd" clip-rule="evenodd" d="M6.72496 0.846924C3.41792 0.846924 0.736908 3.52794 0.736908 6.83497C0.736908 10.142 3.41792 12.823 6.72496 12.823C10.032 12.823 12.713 10.142 12.713 6.83497C12.713 3.52794 10.032 0.846924 6.72496 0.846924ZM9.3205 5.82245C9.3683 5.76782 9.40468 5.70418 9.42752 5.63528C9.45035 5.56638 9.45918 5.4936 9.45348 5.42124C9.44777 5.34888 9.42765 5.27839 9.39431 5.21391C9.36096 5.14944 9.31505 5.09229 9.25929 5.04582C9.20352 4.99935 9.13903 4.9645 9.0696 4.94333C9.00017 4.92215 8.92721 4.91507 8.855 4.92251C8.7828 4.92995 8.71281 4.95176 8.64916 4.98664C8.5855 5.02153 8.52947 5.06879 8.48435 5.12566L6.14357 7.93405L4.93235 6.72229C4.82968 6.62313 4.69217 6.56826 4.54944 6.5695C4.40671 6.57074 4.27018 6.62799 4.16925 6.72892C4.06832 6.82985 4.01107 6.96638 4.00983 7.10912C4.00859 7.25185 4.06345 7.38936 4.16262 7.49202L5.79572 9.12513C5.84921 9.17858 5.91325 9.22031 5.98375 9.24764C6.05426 9.27498 6.12969 9.28732 6.20523 9.28389C6.28077 9.28046 6.35477 9.26133 6.42251 9.22771C6.49025 9.1941 6.55024 9.14674 6.59866 9.08866L9.3205 5.82245Z" fill="#1935CA"/>
</g>
<defs>
<clipPath id="clip0_303_73">
<rect width="13.0648" height="13.0648" fill="white" transform="translate(0.192535 0.302551)"/>
</clipPath>
</defs>
</svg>
