<svg width="11" height="11" viewBox="0 0 11 11" fill="none" xmlns="http://www.w3.org/2000/svg">
<g clip-path="url(#clip0_303_39)">
<path fill-rule="evenodd" clip-rule="evenodd" d="M5.52399 0.478027V0.549654V1.05104H5.73887V2.2007C5.14212 2.23794 4.66447 2.73349 4.66447 3.33777V3.91609H4.37796C4.31777 3.91609 4.26195 3.93493 4.21569 3.96702L3.15668 3.37862C3.15868 3.36693 3.16032 3.35531 3.16032 3.34308C3.16032 3.25042 3.10001 3.17122 3.01706 3.14135V2.34031H3.23194V1.7673H2.65893V1.83893V2.34031H2.87381V3.14135C2.79086 3.17122 2.73056 3.25042 2.73056 3.34308C2.73056 3.46091 2.82761 3.55796 2.94544 3.55796C2.99942 3.55796 3.04852 3.53681 3.08645 3.5034L4.12112 4.07837C4.10273 4.1161 4.09146 4.15803 4.09146 4.2026V5.27699H2.08592V5.06212H1.51291V5.13374V5.63513H2.08592V5.42025H4.09146V5.63513V5.91939L3.08673 6.47786C3.04876 6.44425 2.9996 6.42302 2.94544 6.42302C2.82761 6.42302 2.73056 6.52007 2.73056 6.6379C2.73056 6.73056 2.79086 6.80948 2.87381 6.83935V7.64067H2.65893V7.71229V8.21368H3.23194V7.64067H3.01706V6.83935C3.10001 6.80948 3.16032 6.73056 3.16032 6.6379C3.16032 6.62585 3.15863 6.61418 3.15668 6.60264L4.09146 6.08335V6.6379V6.78115C4.09146 6.93864 4.22048 7.06765 4.37796 7.06765H5.73887V8.50018H5.52399V8.57181V9.07319H6.097V8.50018H5.88212V7.06765H7.24302C7.40051 7.06765 7.52952 6.93864 7.52952 6.78115V6.08335L8.4643 6.60264C8.46236 6.61418 8.46067 6.62585 8.46067 6.6379C8.46067 6.73056 8.52097 6.80948 8.60392 6.83935V7.64067H8.38904V7.71229V8.21368H8.96205V7.64067H8.74717V6.83935C8.83012 6.80948 8.89043 6.73056 8.89043 6.6379C8.89043 6.52007 8.79337 6.42302 8.67555 6.42302C8.62152 6.42302 8.57247 6.44412 8.53453 6.47758L7.52952 5.91967V5.42025H9.53506V5.63513H10.1081V5.06212H9.53506V5.13374V5.27699H7.52952V4.2026C7.52952 4.15803 7.51826 4.1161 7.49987 4.07837L8.53481 3.5034C8.57272 3.53673 8.62164 3.55796 8.67555 3.55796C8.79337 3.55796 8.89043 3.46091 8.89043 3.34308C8.89043 3.25042 8.83012 3.17122 8.74717 3.14135V2.34031H8.96205V1.7673H8.38904V1.83893V2.34031H8.60392V3.14135C8.52097 3.17122 8.46067 3.25042 8.46067 3.34308C8.46067 3.35531 8.4623 3.36693 8.4643 3.37862L7.4053 3.96702C7.35904 3.93493 7.30321 3.91609 7.24302 3.91609H5.23664V3.33889C5.23664 3.01949 5.48607 2.77007 5.81021 2.77007C6.13337 2.77007 6.38201 3.01807 6.3835 3.33609V3.34308C6.3835 3.50057 6.51252 3.62959 6.67001 3.62959C6.82749 3.62959 6.95651 3.50057 6.95651 3.34308V3.32182C6.9566 3.31627 6.95603 3.31073 6.95483 3.30531C6.93796 2.71592 6.46805 2.23727 5.88212 2.2007V1.05104H6.097V0.478027H5.52399ZM5.66724 0.62128H5.95374V0.907786H5.66724V0.62128ZM2.80218 1.91055H3.08869V2.19706H2.80218V1.91055ZM8.53229 1.91055H8.8188V2.19706H8.53229V1.91055ZM5.81049 2.34031C6.36288 2.34031 6.81326 2.7877 6.81326 3.33777V3.34308C6.81326 3.42369 6.75061 3.48634 6.67001 3.48634C6.58941 3.48634 6.52676 3.42369 6.52676 3.34308V3.33889H6.52704C6.52704 3.337 6.52677 3.33517 6.52676 3.33329V3.32182C6.52683 3.31675 6.52636 3.31168 6.52536 3.30671C6.50856 2.92668 6.19813 2.62682 5.81021 2.62682C5.41133 2.62682 5.09339 2.94365 5.09339 3.33889V3.91609H4.80772V3.33777C4.80772 2.7877 5.2581 2.34031 5.81049 2.34031ZM2.94544 3.27146C2.98584 3.27146 3.01706 3.30269 3.01706 3.34308C3.01706 3.38349 2.98584 3.41471 2.94544 3.41471C2.90503 3.41471 2.87381 3.38349 2.87381 3.34308C2.87381 3.30269 2.90503 3.27146 2.94544 3.27146ZM8.67555 3.27146C8.71595 3.27146 8.74717 3.30269 8.74717 3.34308C8.74717 3.38349 8.71595 3.41471 8.67555 3.41471C8.63514 3.41471 8.60392 3.38349 8.60392 3.34308C8.60392 3.30269 8.63514 3.27146 8.67555 3.27146ZM4.37796 4.05935H7.24302C7.32362 4.05935 7.38627 4.122 7.38627 4.2026V5.63513H4.23471V4.2026C4.23471 4.122 4.29736 4.05935 4.37796 4.05935ZM5.81049 4.34585C5.61355 4.34585 5.45236 4.50704 5.45236 4.70398C5.45245 4.81425 5.51052 4.91064 5.59561 4.9779V5.49159H6.02537V4.97762C6.11039 4.91045 6.16843 4.81413 6.16862 4.70398C6.16862 4.50704 6.00743 4.34585 5.81049 4.34585ZM5.81049 4.4891C5.93001 4.4891 6.02537 4.58447 6.02537 4.70398C6.02523 4.78074 5.9844 4.85139 5.91793 4.88976L5.88212 4.91047V5.34862H5.73887V4.91075L5.70305 4.89004C5.63652 4.85162 5.59567 4.78081 5.59561 4.70398C5.59561 4.58447 5.69097 4.4891 5.81049 4.4891ZM1.65616 5.20537H1.94267V5.27699V5.42025V5.49187H1.65616V5.20537ZM9.67832 5.20537H9.96482V5.49187H9.67832V5.20537ZM4.23471 5.77838H7.38627V6.49464H4.23471V5.77838ZM4.44959 5.92163V5.99326V6.35139H4.87935V5.92163H4.44959ZM5.0226 5.92163V5.99326V6.35139H5.45236V5.92163H5.0226ZM5.59561 5.92163V5.99326V6.35139H6.02537V5.92163H5.59561ZM6.16862 5.92163V5.99326V6.35139H6.59838V5.92163H6.16862ZM6.74163 5.92163V5.99326V6.35139H7.17139V5.92163H6.74163ZM4.59284 6.06489H4.7361V6.20814H4.59284V6.06489ZM5.16585 6.06489H5.30911V6.20814H5.16585V6.06489ZM5.73887 6.06489H5.88212V6.20814H5.73887V6.06489ZM6.31188 6.06489H6.45513V6.20814H6.31188V6.06489ZM6.88489 6.06489H7.02814V6.20814H6.88489V6.06489ZM2.94544 6.56627C2.98584 6.56627 3.01706 6.5975 3.01706 6.6379C3.01706 6.67831 2.98584 6.70952 2.94544 6.70952C2.90503 6.70952 2.87381 6.67831 2.87381 6.6379C2.87381 6.5975 2.90503 6.56627 2.94544 6.56627ZM8.67555 6.56627C8.71595 6.56627 8.74717 6.5975 8.74717 6.6379C8.74717 6.67831 8.71595 6.70952 8.67555 6.70952C8.63514 6.70952 8.60392 6.67831 8.60392 6.6379C8.60392 6.5975 8.63514 6.56627 8.67555 6.56627ZM4.23471 6.6379H7.38627V6.78115C7.38627 6.86176 7.32362 6.9244 7.24302 6.9244H4.37796C4.29736 6.9244 4.23471 6.86176 4.23471 6.78115V6.6379ZM2.80218 7.78392H3.08869V8.07042H2.80218V7.78392ZM8.53229 7.78392H8.8188V8.07042H8.53229V7.78392ZM5.66724 8.64343H5.95374V8.92994H5.66724V8.64343Z" fill="white"/>
</g>
<defs>
<clipPath id="clip0_303_39">
<rect width="9.97053" height="9.97053" fill="white" transform="translate(0.693508 0.192535)"/>
</clipPath>
</defs>
</svg>
