<svg width="15" height="15" viewBox="0 0 15 15" fill="none" xmlns="http://www.w3.org/2000/svg">
<path d="M12.6102 4.39875H9.17213V2.88114C9.17213 2.64343 8.98008 2.45138 8.74236 2.45138H3.26287V1.91417C3.26287 1.85508 3.21452 1.80673 3.15543 1.80673H2.40334C2.34425 1.80673 2.2959 1.85508 2.2959 1.91417V12.4434C2.2959 12.5025 2.34425 12.5508 2.40334 12.5508H3.15543C3.21452 12.5508 3.26287 12.5025 3.26287 12.4434V8.89784H6.59354V10.4154C6.59354 10.6532 6.78559 10.8452 7.0233 10.8452H12.6102C12.848 10.8452 13.04 10.6532 13.04 10.4154V4.82851C13.04 4.5908 12.848 4.39875 12.6102 4.39875Z" fill="#1935CA"/>
</svg>
